<?xml version="1.0" encoding="utf-8"?>
<!-- Generator: Adobe Illustrator 17.1.0, SVG Export Plug-In . SVG Version: 6.00 Build 0)  -->
<!DOCTYPE svg PUBLIC "-//W3C//DTD SVG 1.1//EN" "http://www.w3.org/Graphics/SVG/1.1/DTD/svg11.dtd">
<svg version="1.1" id="Layer_1" xmlns="http://www.w3.org/2000/svg" xmlns:xlink="http://www.w3.org/1999/xlink" x="0px" y="0px"
	 viewBox="0 0 512 512" enable-background="new 0 0 512 512" xml:space="preserve">
<g id="Your_Icon">
	<path fill="#B3B3B3" d="M412.6,177.1c-9-30-36.8-51.8-69.7-51.8c-10.8,0-21.1,2.4-30.3,6.7c-23.7-29.8-60.2-49-101.2-49
		c-67.6,0-123.1,51.9-128.7,118.1c-34.7,4.4-61.6,34-61.6,69.9c0,38.9,31.6,70.5,70.5,70.5h319.5c44.1,0,79.9-36.8,79.9-82.2
		C490.9,214.3,456,177.9,412.6,177.1z"/>
	<path fill="#B3B3B3" d="M91.5,322.6c-28.5,0-51.7-23.2-51.7-51.7c0-25.9,19.4-48,45.2-51.2l15.1-1.9l1.3-15.1
		c4.8-56.6,53.1-100.9,110-100.9c33.9,0,65.4,15.3,86.5,41.9l9.2,11.5l13.4-6.2c7.2-3.3,14.7-5,22.5-5c23.6,0,44.9,15.8,51.7,38.4
		l3.9,13.1l13.7,0.3c33,0.7,59.9,29.1,59.9,63.4c0,35-27.4,63.4-61.1,63.4H91.5z"/>
</g>
<path d="M167.8,217.5c5.4,0,10.8,0,16.1,0c0.9,0.2,1.7,0.3,2.6,0.5c6.2,1,12.4,1.6,18.5,2.9c9.6,2.1,18.7,5.5,26.5,11.7
	c3.5,2.8,7.2,5,11.5,6c4.6,1,9.3,2.6,13.9,2.4c5.3-0.3,10.5-2.2,15.6-3.7c1.8-0.5,3.7-1.5,5.2-2.8c10.2-8.6,22.3-12.6,35.1-14.9
	c5-0.9,10.1-1.4,15.1-2.1c5.4,0,10.8,0,16.1,0c0.6,0.2,1.2,0.4,1.8,0.5c13.7,0.9,26.9,3.7,39.8,8.5c6.3,2.3,12.4,5,19.3,5.3
	c2.3,0.1,4.7,0.4,6.9,1c1,0.3,2.2,1.1,2.8,2c2.7,4.5,3.3,9.4,2,14.5c-1.3,4.9-0.1,4-5.1,4.1c-1.3,0-2.5,0.1-3.8-0.1
	c-1.8-0.2-2.6,0.5-2.8,2.3c-0.3,2.8-0.8,5.7-1.1,8.5c-1.8,15.1-4.2,30.1-10.3,44.3c-9.9,23-26.8,36.2-52.5,36.7
	c-7.1,0.1-14.2-0.4-21.2-0.6c13.5,32.7,0.7,64.6-20.4,81.2c-24.4,19.1-55.5,20.7-81.7,4.1c-11.9-7.5-20.6-18-26.1-31
	c-7.6-18.1-7.3-36.4-0.1-54.1c-8.4,0.1-16.7,0.6-24.9,0.1c-16.3-1-29.7-8.1-39.6-21.3c-8.6-11.5-13-24.8-15.7-38.7
	c-1.8-9.6-3-19.3-4.3-28.9c-0.3-2-1-2.8-3.1-2.7c-2.5,0.2-5,0-7.5,0c-0.6-2-1.2-3.8-1.8-5.7c0-2,0-3.9,0-5.9
	c0.5-1.4,0.9-2.9,1.4-4.3c0.9-3.1,2.6-4.6,6.2-5.1c6.2-0.8,12.5-1.7,18.3-3.8c10.9-4,21.8-7.4,33.3-9.2
	C158.4,218.5,163.1,218.1,167.8,217.5z M176.2,232.5c-4.5,0.3-10.7,0.6-16.9,1.3c-7.8,0.9-15.6,2.5-22.6,6.3
	c-7.8,4.3-12.8,10.7-12.4,19.8c0.8,16.1,4.8,31.5,12.7,45.6c11,19.5,27.8,27.6,50,24.3c15.7-2.4,26.2-11.9,33.1-25.8
	c5.8-11.7,8.2-24.2,8.8-37.1c0.8-16.2-6.2-25.7-21.7-30.6C197.7,233.1,187.7,232.7,176.2,232.5z M337,232.5
	c-10.2,0.2-20.7,0.7-30.8,4.2c-11.6,4.1-19.2,11.7-19.7,24.4c-0.7,15.7,2.5,30.8,9.8,44.8c3.5,6.8,8.4,12.5,14.7,16.9
	c17.2,12,49.7,12,66-15c7-11.6,10.1-24.4,12.9-37.3c1.2-5.7,1.9-11.3,0.2-17c-2.6-8.8-9.4-13.2-17.5-16.1
	C361.3,233.4,349.4,232.9,337,232.5z M274.3,304.3c-0.3-1-0.8-2.1-1-3.2c-1.3-6.3-2.8-12.6-3.8-18.9c-1.3-8.4-5.5-12.5-13.5-12.5
	c-8,0-12.3,4.1-13.4,12.6c-0.2,2-0.5,4.1-1,6.1c-1.1,5.4-2.4,10.7-3.5,15.7c5.9-0.6,11.9-1.6,17.9-1.6
	C262,302.5,268,303.6,274.3,304.3z M389,292.5c-8,24-22.7,40-49.2,42.4C370,337.8,387.8,316.9,389,292.5z M115,272.9
	c-0.2,0-0.3,0-0.5,0.1c0,0.9-0.1,1.8,0,2.6c0.9,6,1.5,12.1,2.8,18c3.4,15.4,11.1,28.2,23.7,37.9c1.6,1.2,3.6,2.1,5.4,3.1
	c0.2-0.3,0.4-0.5,0.5-0.8c-1.1-1-2.3-1.9-3.3-3c-3-2.9-6.1-5.8-9-8.9c-9-9.8-13.6-21.7-16.3-34.5C117.3,282.6,116.1,277.7,115,272.9
	z M235.4,242.2c11.1,9,28.4,8,37.1-2.5C260.1,246.7,247.9,245.7,235.4,242.2z"/>
<circle fill="#FF3800" cx="255.5" cy="368.6" r="73.4"/>
</svg>
